HIERARCHY
ROOT Hips
{
	OFFSET 0.000000 0.000000 0.000000
	CHANNELS 6 Xposition Yposition Zposition Zrotation Yrotation Xrotation 
	JOINT LHipJoint
	{
		OFFSET 0.000000 0.000000 0.000000
		CHANNELS 3 Zrotation Yrotation Xrotation
		JOINT LeftUpLeg
		{
			OFFSET 1.363060 -1.794630 0.839290
			CHANNELS 3 Zrotation Yrotation Xrotation
			JOINT LeftLeg
			{
				OFFSET 2.448110 -6.726130 0.000000
				CHANNELS 3 Zrotation Yrotation Xrotation
				JOINT LeftFoot
				{
					OFFSET 2.562200 -7.039590 0.000000
					CHANNELS 3 Zrotation Yrotation Xrotation
					JOINT LeftToeBase
					{
						OFFSET 0.157640 -0.433110 2.322550
						CHANNELS 3 Zrotation Yrotation Xrotation
						End Site
						{
							OFFSET 0.000000 0.000000 0.000000
						}
					}
				}
			}
		}
	}
	JOINT RHipJoint
	{
		OFFSET 0.000000 0.000000 0.000000
		CHANNELS 3 Zrotation Yrotation Xrotation
		JOINT RightUpLeg
		{
			OFFSET -1.305520 -1.794630 0.839290
			CHANNELS 3 Zrotation Yrotation Xrotation
			JOINT RightLeg
			{
				OFFSET -2.542530 -6.985550 0.000000
				CHANNELS 3 Zrotation Yrotation Xrotation
				JOINT RightFoot
				{
					OFFSET -2.568260 -7.056230 0.000000
					CHANNELS 3 Zrotation Yrotation Xrotation
					JOINT RightToeBase
					{
						OFFSET -0.164730 -0.452590 2.363150
						CHANNELS 3 Zrotation Yrotation Xrotation
						End Site
						{
							OFFSET 0.000000 0.000000 0.000000
						}
					}
				}
			}
		}
	}
	JOINT LowerBack
	{
		OFFSET 0.000000 0.000000 0.000000
		CHANNELS 3 Zrotation Yrotation Xrotation
		JOINT Spine
		{
			OFFSET 0.028270 2.035590 -0.193380
			CHANNELS 3 Zrotation Yrotation Xrotation
			JOINT Spine1
			{
				OFFSET 0.056720 2.048850 -0.042750
				CHANNELS 3 Zrotation Yrotation Xrotation
				JOINT Neck
				{
					OFFSET 0.000000 0.000000 0.000000
					CHANNELS 3 Zrotation Yrotation Xrotation
					JOINT Neck1
					{
						OFFSET -0.054170 1.746240 0.172020
						CHANNELS 3 Zrotation Yrotation Xrotation
						JOINT Head
						{
							OFFSET 0.104070 1.761360 -0.123970
							CHANNELS 3 Zrotation Yrotation Xrotation
							End Site
							{
								OFFSET 0.000000 0.000000 0.000000
							}
						}
					}
				}
				JOINT LeftShoulder
				{
					OFFSET 0.000000 0.000000 0.000000
					CHANNELS 3 Zrotation Yrotation Xrotation
					JOINT LeftArm
					{
						OFFSET 3.362410 1.200890 -0.311210
						CHANNELS 3 Zrotation Yrotation Xrotation
						JOINT LeftForeArm
						{
							OFFSET 4.983000 -0.000000 -0.000000
							CHANNELS 3 Zrotation Yrotation Xrotation
							JOINT LeftHand
							{
								OFFSET 3.483560 -0.000000 -0.000000
								CHANNELS 3 Zrotation Yrotation Xrotation
								JOINT LeftFingerBase
								{
									OFFSET 0.000000 0.000000 0.000000
									CHANNELS 3 Zrotation Yrotation Xrotation
									JOINT LeftHandIndex1
									{
										OFFSET 0.715260 -0.000000 -0.000000
										CHANNELS 3 Zrotation Yrotation Xrotation
										End Site
										{
											OFFSET 0.000000 0.000000 0.000000
										}
									}
								}
								JOINT LThumb
								{
									OFFSET 0.000000 0.000000 0.000000
									CHANNELS 3 Zrotation Yrotation Xrotation
									End Site
									{
										OFFSET 0.000000 0.000000 0.000000
									}
								}
							}
						}
					}
				}
				JOINT RightShoulder
				{
					OFFSET 0.000000 0.000000 0.000000
					CHANNELS 3 Zrotation Yrotation Xrotation
					JOINT RightArm
					{
						OFFSET -3.136600 1.374050 -0.404650
						CHANNELS 3 Zrotation Yrotation Xrotation
						JOINT RightForeArm
						{
							OFFSET -5.241900 -0.000000 -0.000000
							CHANNELS 3 Zrotation Yrotation Xrotation
							JOINT RightHand
							{
								OFFSET -3.444170 -0.000000 -0.000000
								CHANNELS 3 Zrotation Yrotation Xrotation
								JOINT RightFingerBase
								{
									OFFSET 0.000000 0.000000 0.000000
									CHANNELS 3 Zrotation Yrotation Xrotation
									JOINT RightHandIndex1
									{
										OFFSET -0.622530 -0.000000 -0.000000
										CHANNELS 3 Zrotation Yrotation Xrotation
										End Site
										{
											OFFSET 0.000000 0.000000 0.000000
										}
									}
								}
								JOINT RThumb
								{
									OFFSET 0.000000 0.000000 0.000000
									CHANNELS 3 Zrotation Yrotation Xrotation
									End Site
									{
										OFFSET 0.000000 0.000000 0.000000
									}
								}
							}
						}
					}
				}
			}
		}
	}
}
MOTION
Frames: 6
Frame Time: 0.008333
-48.784291 23.941993 -1.185818 -130.818501 -72.866244 -137.910666 -170.731776 -39.365075 -46.290327 -47.712215 -0.849108 -24.184210 -5.182791 87.308526 -123.170898 -54.261756 -26.579376 118.035603 0.687100 5.299600 14.765100 -128.676095 24.248148 -120.698875 -178.222102 88.352754 -64.741561 -27.440409 2.636123 -69.357356 -164.625550 -28.499247 -1.291053 -0.616100 -5.023400 13.975200 -164.010599 62.012433 124.151060 68.441873 -65.292416 -105.727728 136.708479 -25.196244 -148.475274 142.590209 -53.571945 -101.839722 76.270789 54.064377 110.850855 -4.235700 3.429700 11.229700 -7.168976 73.750695 54.735672 -137.924417 -65.086346 129.790496 -99.823952 60.003007 -18.283746 -60.334024 -9.219631 -40.337041 -14.009989 17.583359 -14.589499 -7.125000 0.000000 0.000000 10.396000 8.890700 -8.814600 -80.962398 51.198500 -100.716451 -17.019990 52.530995 -15.008679 47.643899 -31.215391 -25.532832 56.979382 -3.205731 -55.141338 -2.389755 -76.896660 23.973200 7.125000 0.000000 0.000000 -6.376500 -72.025300 4.102400 
-48.877767 23.949900 -1.101379 -27.906139 42.431606 -29.707495 -167.727821 -32.312984 -177.996409 -41.782147 41.487173 -92.266932 -33.365037 1.306980 30.630600 -71.249483 22.353103 41.231297 0.632900 5.090400 14.166600 -89.145682 18.929362 115.969452 -14.147200 59.595139 -40.647394 21.508596 -20.141333 69.010876 154.122221 -72.333579 -16.518291 -0.634700 -5.097400 14.186600 -142.218337 56.675585 65.227559 64.366484 -1.210437 166.632990 -5.820880 -44.474600 125.863255 167.265953 -30.111530 111.635466 14.881304 -64.744966 16.005419 -4.214900 3.670100 11.597000 146.798701 -53.186997 -68.747301 -134.184136 -81.183657 -89.501265 -161.039208 -3.964848 145.162197 -54.719474 15.835590 -72.794453 5.528595 87.926527 -14.247799 -7.125000 0.000000 0.000000 11.104200 9.754200 -9.242400 -177.586549 43.896328 -41.931990 13.452031 5.731222 -163.062213 4.781158 2.532285 -36.181308 12.344327 0.855938 -37.745386 -26.631525 -50.988366 24.907500 7.125000 0.000000 0.000000 -6.213500 -73.541000 4.202700 
-48.943850 23.954701 -1.025694 151.921012 -86.993765 94.609577 -178.027151 -12.726536 -27.066590 83.919933 64.803268 -63.884730 157.482377 84.316372 87.372687 -79.234704 4.325864 -171.193388 0.626300 5.064000 14.091200 -145.047808 48.329057 -48.241225 -122.364245 -7.930165 -97.796232 -26.328628 51.267216 -165.172880 -109.241848 -57.609310 126.788444 -0.687000 -5.298900 14.763100 -3.833173 -2.123830 -146.357344 155.996885 52.430521 -160.364344 -38.684939 -85.974245 -95.970595 -104.390739 -76.568872 39.324486 19.783674 11.616247 -113.323743 -4.330800 3.885900 11.899000 147.315452 -59.195710 49.390516 -110.244914 64.298564 -58.921590 66.367127 27.959985 11.609331 -6.552393 89.488437 -24.629066 101.704659 18.182773 -13.499100 -7.125000 0.000000 0.000000 11.271200 10.838000 -9.134000 26.764838 3.439933 -151.341286 83.117852 -68.546620 -10.372381 45.218738 -54.312740 -18.837690 -118.992296 34.467550 28.632408 -125.886916 40.755737 26.105400 7.125000 0.000000 0.000000 -7.136800 -74.942400 5.043600 
-48.922387 23.949900 -0.964695 -48.288345 64.591392 60.821442 154.134106 -76.972329 -138.082869 -107.834977 -23.655447 -153.023769 -14.438205 -0.954971 137.104768 52.019370 -85.342050 92.000099 0.586300 4.902500 13.630700 -79.154445 54.942679 -41.546450 48.751740 -80.640727 -150.111639 -74.658988 -74.614051 121.513258 133.704482 32.049033 -123.391189 -0.721200 -5.426700 15.129800 78.430274 -56.291768 -142.805927 -178.778788 19.566739 172.589153 167.325843 -74.018560 -132.892461 -116.701885 75.935524 -17.397664 -143.336327 -5.903979 -96.807548 -4.290900 4.096200 12.215400 57.987420 -43.321688 -47.335182 -71.325963 -63.152677 8.349110 -134.030410 -88.754925 -56.399473 45.914366 14.124407 -88.787263 64.993167 47.374601 -13.350500 -7.125000 0.000000 0.000000 11.639700 11.225500 -9.351100 -137.488401 -1.761089 -27.290832 -64.015935 -89.601462 138.700925 -86.573379 -26.179431 8.098306 68.562578 -6.049193 -67.114376 13.202058 -67.344238 26.831400 7.125000 0.000000 0.000000 -7.844800 -75.735200 5.677400 
-48.889628 23.953006 -0.903978 172.888106 -9.166213 30.547542 -168.681263 24.675775 -52.430231 -169.867416 78.074884 -1.729555 167.241543 35.538067 -127.399733 131.180792 2.541305 92.466943 0.559700 4.791900 13.315900 131.304567 -3.543266 -167.182665 157.591406 57.516076 -156.033144 46.939599 -39.082451 -119.757512 -160.232990 -58.646702 92.708765 -0.771600 -5.609000 15.653900 12.367189 6.222704 77.793031 -14.370714 56.255804 52.940520 68.350481 59.006398 -178.205440 -58.208061 -74.084831 21.047992 -11.596740 -47.311388 -158.528294 -4.195000 4.268300 12.632900 94.144454 44.187748 178.482307 -118.571163 -66.307989 -64.389459 -121.279185 72.471388 15.761797 -24.322539 40.771956 0.431947 76.702693 -22.940496 -14.060499 -7.125000 0.000000 0.000000 12.477300 10.726600 -10.187900 -110.297029 84.836581 -58.622334 119.255490 -23.415374 2.621769 24.811014 -5.759240 -48.216451 23.570525 -11.817460 -43.054307 -25.594705 -65.752682 27.153900 7.125000 0.000000 0.000000 -8.565100 -75.920400 6.233700 
-48.843879 23.962326 -0.842413 -5.975160 84.635536 145.361711 134.241509 -33.613327 -21.752763 69.147520 -62.434807 -114.072745 134.553912 17.726966 91.990254 146.848706 27.299401 -128.589358 0.613600 5.013300 13.946400 -50.288752 43.589470 173.226366 153.157908 -89.219328 -119.827009 -103.724743 -53.015121 -80.934754 -54.027654 -75.468429 -175.875663 -0.776000 -5.624500 15.698600 -138.424786 -41.563863 -156.071267 -108.673564 -88.641270 126.144710 -14.750352 40.092052 163.506451 -140.808055 63.248583 144.220842 -169.301776 -49.490421 -83.470929 -4.505500 4.398700 12.852700 45.868797 -30.109715 129.276948 95.840205 7.067552 -85.616282 155.675918 -26.132792 -20.693903 -33.021799 21.146445 -29.630008 31.783323 17.831919 -15.100300 -7.125000 0.000000 0.000000 13.004200 9.678300 -10.925700 7.531220 79.613863 77.956663 -8.655366 71.005528 -118.099224 -103.142235 -15.650961 124.494910 98.985632 52.676634 -77.002590 49.049054 -57.738131 27.470802 7.125000 0.000000 0.000000 -10.370400 -75.627900 7.489100 
